<?xml version="1.0" encoding="UTF-8" standalone="no"?>
<svg
   id="vector"
   width="36.0d"
   height="36.0d"
   viewBox="0 0 36.0 36.0"
   version="1.1"
   sodipodi:docname="bellnew.svg"
   xml:space="preserve"
   inkscape:version="1.4.2 (f4327f4, 2025-05-13)"
   xmlns:inkscape="http://www.inkscape.org/namespaces/inkscape"
   xmlns:sodipodi="http://sodipodi.sourceforge.net/DTD/sodipodi-0.dtd"
   xmlns="http://www.w3.org/2000/svg"
   xmlns:svg="http://www.w3.org/2000/svg"><defs
     id="defs1" /><sodipodi:namedview
     id="namedview1"
     pagecolor="#505050"
     bordercolor="#ffffff"
     borderopacity="1"
     inkscape:showpageshadow="0"
     inkscape:pageopacity="0"
     inkscape:pagecheckerboard="1"
     inkscape:deskcolor="#505050"
     inkscape:zoom="15.850977"
     inkscape:cx="17.790701"
     inkscape:cy="16.749756"
     inkscape:window-width="1920"
     inkscape:window-height="1009"
     inkscape:window-x="-8"
     inkscape:window-y="-8"
     inkscape:window-maximized="1"
     inkscape:current-layer="vector" /><path
     d="m 31.978516,23.325952 c 0,-0.923299 -0.238152,-1.826079 -0.693748,-2.626271 l -1.90522,-3.323877 c -0.279571,-0.482167 -0.424533,-1.025887 -0.424533,-1.590126 v -2.431353 c 0,-6.1655851 -4.918366,-11.1821761 -10.955014,-11.1821761 -6.036648,0 -10.9550157,5.016591 -10.9550157,11.1821761 v 2.431353 c 0,0.553979 -0.1449624,1.107959 -0.4245327,1.590127 l -1.9052199,3.323876 c -0.4555962,0.789933 -0.6937487,1.702973 -0.6937487,2.626271 0,2.862227 2.2779805,5.190992 5.0840386,5.190992 H 26.894478 c 2.806058,0 5.084038,-2.328765 5.084038,-5.190992 z m -5.084038,3.149475 v 0.0504 H 9.1055226 c -1.6981314,-0.06067 -3.075274,-1.466127 -3.075274,-3.199878 0,-0.553979 0.1449623,-1.107957 0.4245327,-1.590126 L 8.360001,18.411951 c 0.4555959,-0.800193 0.6937487,-1.702975 0.6937487,-2.616015 v -2.431353 c 0,-5.037109 4.0175293,-9.130401 8.9462513,-9.130401 4.928721,0 8.946249,4.093292 8.946249,9.130401 v 2.431353 c 0,0.923298 0.238153,1.826081 0.693749,2.626273 l 1.90522,3.323877 c 0.27957,0.482166 0.424533,1.025886 0.424533,1.590124 0,1.73375 -1.377143,3.139216 -3.075274,3.139217 z"
     fill-rule="nonzero"
     fill="#000000"
     stroke="none"
     id="path1-8"
     style="stroke-width:1.15969" /><path
     d="m 22.308927,30.197486 c 0,-0.531528 -0.46388,-0.966416 -1.030844,-0.966416 -0.566963,0 -1.030843,0.434888 -1.030843,0.966416 0,1.1597 -1.010227,2.106788 -2.247239,2.106788 -1.237014,0 -2.247241,-0.947088 -2.247241,-2.106788 0,-0.531528 -0.463878,-0.966416 -1.030843,-0.966416 -0.566964,0 -1.030844,0.434888 -1.030844,0.966416 0,2.232421 1.937988,4.039619 4.308928,4.039619 2.370939,0 4.308926,-1.816862 4.308926,-4.039619 z"
     fill-rule="nonzero"
     fill="#000000"
     stroke="none"
     id="path1"
     style="stroke-width:1.15969" /></svg>
